<?xml version="1.0" encoding="UTF-8"?>
<svg width="2310px" height="1375px" viewBox="0 0 2310 1375" version="1.1" xmlns="http://www.w3.org/2000/svg"
  xmlns:xlink="http://www.w3.org/1999/xlink">
  <title>Artboard</title>
  <g id="Artboard" stroke="none" stroke-width="1" fill="none" fill-rule="evenodd">
    <g id="Group" transform="translate(-1.000000, 2.333771)" fill="#CED4DA" fill-rule="nonzero">
      <polyline id="Path" points="1.13686838e-13 0 476.6 0 476.6 972.82 1.13686838e-13 972.82"></polyline>
    </g>
    <g id="Group" transform="translate(36.522934, 121.148895)">
      <polyline id="Path" fill="#FA5252" fill-rule="nonzero"
        points="34.22 0 370.48 0 385.46 2.14 396.14 8.56 399.9 13.36 404.16 26.2 404.7 102.68 402.56 117.66 399.9 123.54 391.34 132.1 385.46 134.76 370.48 136.9 34.22 136.9 19.26 134.76 13.36 132.1 4.82 123.54 0.54 110.7 0.54 26.2 2.14 19.26 8.56 8.56 19.26 2.14 34.22 0">
      </polyline>
      <path
        d="M34.22,2.22044605e-16 C140.14,2.22044605e-16 246.06,2.22044605e-16 370.48,2.22044605e-16 M34.22,2.22044605e-16 C127.54,2.22044605e-16 220.84,2.22044605e-16 370.48,2.22044605e-16 M370.48,0 C393.3,0 404.7,11.4 404.7,34.22 M370.48,0 C393.3,0 404.7,11.4 404.7,34.22 M404.7,34.22 C404.7,58.32 404.7,82.4 404.7,102.68 M404.7,34.22 C404.7,54.34 404.7,74.46 404.7,102.68 M404.7,102.68 C404.7,125.5 393.3,136.9 370.48,136.9 M404.7,102.68 C404.7,125.5 393.3,136.9 370.48,136.9 M370.48,136.9 C243.92,136.9 117.38,136.9 34.22,136.9 M370.48,136.9 C242.06,136.9 113.64,136.9 34.22,136.9 M34.22,136.9 C11.4,136.9 0,125.5 0,102.68 M34.22,136.9 C11.4,136.9 0,125.5 0,102.68 M0,102.68 C0,78.58 0,54.48 0,34.22 M0,102.68 C0,75.84 0,48.98 0,34.22 M0,34.22 C0,11.4 11.4,0 34.22,0 M0,34.22 C0,11.4 11.4,0 34.22,0"
        id="Shape" stroke="#000000" stroke-width="4"></path>
    </g>
    <g id="Group" transform="translate(185.814758, 164.913437)" fill="#000000" fill-rule="nonzero"
      font-family="Helvetica" font-size="40" font-weight="normal">
      <text id="create">
        <tspan x="0" y="39">create</tspan>
      </text>
    </g>
    <g id="Group" transform="translate(36.522934, 288.106133)">
      <polyline id="Path" fill="#228BE6" fill-rule="nonzero"
        points="34.22 0 370.6 0 385.58 2.14 396.26 8.56 400.02 13.36 404.28 26.2 404.82 102.68 402.68 117.66 400.02 123.54 391.46 132.1 385.58 134.76 370.6 136.9 34.22 136.9 19.26 134.76 13.36 132.1 4.82 123.54 0.54 110.7 0.54 26.2 2.14 19.26 8.56 8.56 19.26 2.14 34.22 0">
      </polyline>
      <path
        d="M34.22,2.22044605e-16 C105.3,2.22044605e-16 176.38,2.22044605e-16 370.6,2.22044605e-16 M34.22,2.22044605e-16 C153.14,2.22044605e-16 272.04,2.22044605e-16 370.6,2.22044605e-16 M370.6,0 C393.42,0 404.82,11.4 404.82,34.22 M370.6,0 C393.42,0 404.82,11.4 404.82,34.22 M404.82,34.22 C404.82,49.3 404.82,64.36 404.82,102.68 M404.82,34.22 C404.82,52.52 404.82,70.8 404.82,102.68 M404.82,102.68 C404.82,125.5 393.42,136.9 370.6,136.9 M404.82,102.68 C404.82,125.5 393.42,136.9 370.6,136.9 M370.6,136.9 C268.34,136.9 166.1,136.9 34.22,136.9 M370.6,136.9 C272.3,136.9 174,136.9 34.22,136.9 M34.22,136.9 C11.4,136.9 0,125.5 0,102.68 M34.22,136.9 C11.4,136.9 0,125.5 0,102.68 M0,102.68 C0,77.64 0,52.6 0,34.22 M0,102.68 C0,80.6 0,58.5 0,34.22 M0,34.22 C0,11.4 11.4,0 34.22,0 M0,34.22 C0,11.4 11.4,0 34.22,0"
        id="Shape" stroke="#000000" stroke-width="4"></path>
    </g>
    <g id="Group" transform="translate(199.765640, 331.861900)" fill="#000000" fill-rule="nonzero"
      font-family="Helvetica" font-size="40" font-weight="normal">
      <text id="start">
        <tspan x="0" y="39">start</tspan>
      </text>
    </g>
    <g id="Group" transform="translate(36.522934, 458.840729)">
      <polyline id="Path" fill="#40C057" fill-rule="nonzero"
        points="34.22 0 371.16 0 386.14 2.14 396.84 8.56 400.58 13.36 404.86 26.2 405.4 102.68 403.26 117.66 400.58 123.54 392.02 132.1 386.14 134.76 371.16 136.9 34.22 136.9 19.26 134.76 13.36 132.1 4.82 123.54 0.54 110.7 0.54 26.2 2.14 19.26 8.56 8.56 19.26 2.14 34.22 0">
      </polyline>
      <path
        d="M34.22,2.22044605e-16 C130.06,2.22044605e-16 225.88,2.22044605e-16 371.16,2.22044605e-16 M34.22,2.22044605e-16 C109.22,2.22044605e-16 184.22,2.22044605e-16 371.16,2.22044605e-16 M371.16,0 C393.98,0 405.4,11.4 405.4,34.22 M371.16,0 C393.98,0 405.4,11.4 405.4,34.22 M405.4,34.22 C405.4,61.14 405.4,88.06 405.4,102.68 M405.4,34.22 C405.4,60.5 405.4,86.76 405.4,102.68 M405.4,102.68 C405.4,125.5 393.98,136.9 371.16,136.9 M405.4,102.68 C405.4,125.5 393.98,136.9 371.16,136.9 M371.16,136.9 C301.34,136.9 231.5,136.9 34.22,136.9 M371.16,136.9 C250.38,136.9 129.6,136.9 34.22,136.9 M34.22,136.9 C11.4,136.9 2.84217094e-14,125.5 2.84217094e-14,102.68 M34.22,136.9 C11.4,136.9 2.84217094e-14,125.5 2.84217094e-14,102.68 M2.8643754e-14,102.68 C2.8643754e-14,75.68 2.8643754e-14,48.68 2.8643754e-14,34.22 M2.8643754e-14,102.68 C2.8643754e-14,80.48 2.8643754e-14,58.26 2.8643754e-14,34.22 M2.84217094e-14,34.22 C2.84217094e-14,11.4 11.4,0 34.22,0 M2.84217094e-14,34.22 C2.84217094e-14,11.4 11.4,0 34.22,0"
        id="Shape" stroke="#000000" stroke-width="4"></path>
    </g>
    <g id="Group" transform="translate(195.675903, 501.554825)" fill="#000000" fill-rule="nonzero"
      font-family="Helvetica" font-size="40" font-weight="normal">
      <text id="build">
        <tspan x="0" y="39">build</tspan>
      </text>
    </g>
    <g id="Group" transform="translate(36.522934, 628.534004)">
      <polyline id="Path" fill="#FD7E14" fill-rule="nonzero"
        points="34.22 0 372.58 0 387.56 2.14 398.24 8.56 402 13.36 406.26 26.2 406.8 102.68 404.66 117.66 402 123.54 393.44 132.1 387.56 134.76 372.58 136.9 34.22 136.9 19.26 134.76 13.36 132.1 4.82 123.54 0.54 110.7 0.54 26.2 2.14 19.26 8.56 8.56 19.26 2.14 34.22 0">
      </polyline>
      <path
        d="M34.22,2.22044605e-16 C149.66,2.22044605e-16 265.08,2.22044605e-16 372.58,2.22044605e-16 M34.22,2.22044605e-16 C155.72,2.22044605e-16 277.2,2.22044605e-16 372.58,2.22044605e-16 M372.58,0 C395.4,0 406.8,11.4 406.8,34.22 M372.58,0 C395.4,0 406.8,11.4 406.8,34.22 M406.8,34.22 C406.8,56.42 406.8,78.6 406.8,102.68 M406.8,34.22 C406.8,59.82 406.8,85.4 406.8,102.68 M406.8,102.68 C406.8,125.5 395.4,136.9 372.58,136.9 M406.8,102.68 C406.8,125.5 395.4,136.9 372.58,136.9 M372.58,136.9 C249.5,136.9 126.44,136.9 34.22,136.9 M372.58,136.9 C282.96,136.9 193.34,136.9 34.22,136.9 M34.22,136.9 C11.4,136.9 0,125.5 0,102.68 M34.22,136.9 C11.4,136.9 0,125.5 0,102.68 M0,102.68 C0,79.04 0,55.4 0,34.22 M0,102.68 C0,76.76 0,50.86 0,34.22 M0,34.22 C0,11.4 11.4,0 34.22,0 M0,34.22 C0,11.4 11.4,0 34.22,0"
        id="Shape" stroke="#000000" stroke-width="4"></path>
    </g>
    <g id="Group" transform="translate(188.561569, 674.491486)" fill="#000000" fill-rule="nonzero"
      font-family="Helvetica" font-size="40" font-weight="normal">
      <text id="serve">
        <tspan x="0" y="39">serve</tspan>
      </text>
    </g>
    <g id="Group" transform="translate(36.522934, 798.480736)">
      <polyline id="Path" fill="#BE4BDB" fill-rule="nonzero"
        points="34.22 0 376.08 0 391.06 2.14 401.76 8.56 405.5 13.36 409.78 26.2 410.3 102.68 408.16 117.66 405.5 123.54 396.94 132.1 391.06 134.76 376.08 136.9 34.22 136.9 19.26 134.76 13.36 132.1 4.82 123.54 0.54 110.7 0.54 26.2 2.14 19.26 8.56 8.56 19.26 2.14 34.22 0">
      </polyline>
      <path
        d="M34.22,2.22044605e-16 C146.7,2.22044605e-16 259.16,2.22044605e-16 376.08,2.22044605e-16 M34.22,2.22044605e-16 C143.7,2.22044605e-16 253.16,2.22044605e-16 376.08,2.22044605e-16 M376.08,0 C398.9,0 410.3,11.4 410.3,34.22 M376.08,0 C398.9,0 410.3,11.4 410.3,34.22 M410.3,34.22 C410.3,55.86 410.3,77.48 410.3,102.68 M410.3,34.22 C410.3,49.36 410.3,64.5 410.3,102.68 M410.3,102.68 C410.3,125.5 398.9,136.9 376.08,136.9 M410.3,102.68 C410.3,125.5 398.9,136.9 376.08,136.9 M376.08,136.9 C241.72,136.9 107.38,136.9 34.22,136.9 M376.08,136.9 C251,136.9 125.92,136.9 34.22,136.9 M34.22,136.9 C11.4,136.9 0,125.5 0,102.68 M34.22,136.9 C11.4,136.9 0,125.5 0,102.68 M0,102.68 C0,80.32 0,57.96 0,34.22 M0,102.68 C0,88.62 0,74.56 0,34.22 M0,34.22 C0,11.4 11.4,0 34.22,0 M0,34.22 C0,11.4 11.4,0 34.22,0"
        id="Shape" stroke="#000000" stroke-width="4"></path>
    </g>
    <g id="Group" transform="translate(201.170288, 841.681320)" fill="#000000" fill-rule="nonzero"
      font-family="Helvetica" font-size="40" font-weight="normal">
      <text id="track">
        <tspan x="0" y="39">track</tspan>
      </text>
    </g>
    <g id="Group" transform="translate(33.627747, 34.078850)" fill="#000000" fill-rule="nonzero" font-family="Helvetica"
      font-size="40" font-weight="normal">
      <text id="command">
        <tspan x="0" y="39">command</tspan>
      </text>
    </g>
    <g id="Group" transform="translate(503.120636, 1.000000)" fill="#CED4DA" fill-rule="nonzero">
      <polyline id="Path" points="0 0 1807.1 0 1807.1 196.86 0 196.86"></polyline>
    </g>
    <g id="Group" transform="translate(537.416382, 33.753143)" fill="#000000" fill-rule="nonzero"
      font-family="Helvetica" font-size="40" font-weight="normal">
      <text id="project">
        <tspan x="0" y="39">project</tspan>
      </text>
    </g>
    <g id="Group" transform="translate(813.952087, 33.514954)">
      <polyline id="Path" fill="#FAB005" fill-rule="nonzero"
        points="34.22 0 692.12 0.54 704.96 4.82 709.76 8.56 716.18 19.26 718.32 34.22 717.8 110.7 716.18 117.66 709.76 128.36 699.08 134.76 684.1 136.9 26.2 136.38 19.26 134.76 8.56 128.36 2.14 117.66 0 102.68 0 34.22 2.14 19.26 8.56 8.56 19.26 2.14 34.22 0">
      </polyline>
      <path
        d="M34.22,0 C245.46,0 456.7,0 684.1,0 M34.22,0 C269.82,0 505.42,0 684.1,0 M684.1,0 C706.92,0 718.32,11.4 718.32,34.22 M684.1,0 C706.92,0 718.32,11.4 718.32,34.22 M718.32,34.22 C718.32,60.7 718.32,87.18 718.32,102.68 M718.32,34.22 C718.32,57.4 718.32,80.58 718.32,102.68 M718.32,102.68 C718.32,125.5 706.92,136.9 684.1,136.9 M718.32,102.68 C718.32,125.5 706.92,136.9 684.1,136.9 M684.1,136.9 C545.5,136.9 406.88,136.9 34.22,136.9 M684.1,136.9 C478.16,136.9 272.2,136.9 34.22,136.9 M34.22,136.9 C11.4,136.9 0,125.5 0,102.68 M34.22,136.9 C11.4,136.9 0,125.5 0,102.68 M1.11022302e-16,102.68 C1.11022302e-16,86.06 1.11022302e-16,69.46 1.11022302e-16,34.22 M1.11022302e-16,102.68 C1.11022302e-16,80.34 1.11022302e-16,58 1.11022302e-16,34.22 M0,34.22 C0,11.4 11.4,0 34.22,0 M0,34.22 C0,11.4 11.4,0 34.22,0"
        id="Shape" stroke="#000000" stroke-width="4"></path>
    </g>
    <g id="Group" transform="translate(1556.004700, 34.104935)">
      <polyline id="Path" fill="#12B886" fill-rule="nonzero"
        points="34.22 0 692.12 0.54 704.96 4.82 709.76 8.56 716.18 19.26 718.32 34.22 717.8 110.7 716.18 117.66 709.76 128.36 699.08 134.76 684.1 136.9 26.2 136.38 19.26 134.76 8.56 128.36 2.14 117.66 0 102.68 0 34.22 2.14 19.26 8.56 8.56 19.26 2.14 34.22 0">
      </polyline>
      <path
        d="M34.22,0 C174.7,0 315.16,0 684.1,0 M34.22,0 C233.9,0 433.58,0 684.1,0 M684.1,0 C706.92,0 718.32,11.4 718.32,34.22 M684.1,0 C706.92,0 718.32,11.4 718.32,34.22 M718.32,34.22 C718.32,53.52 718.32,72.82 718.32,102.68 M718.32,34.22 C718.32,58.94 718.32,83.64 718.32,102.68 M718.32,102.68 C718.32,125.5 706.92,136.9 684.1,136.9 M718.32,102.68 C718.32,125.5 706.92,136.9 684.1,136.9 M684.1,136.9 C468.36,136.9 252.64,136.9 34.22,136.9 M684.1,136.9 C513.52,136.9 342.94,136.9 34.22,136.9 M34.22,136.9 C11.4,136.9 0,125.5 0,102.68 M34.22,136.9 C11.4,136.9 0,125.5 0,102.68 M1.11022302e-16,102.68 C1.11022302e-16,81.42 1.11022302e-16,60.16 1.11022302e-16,34.22 M1.11022302e-16,102.68 C1.11022302e-16,81.56 1.11022302e-16,60.44 1.11022302e-16,34.22 M0,34.22 C0,11.4 11.4,0 34.22,0 M0,34.22 C0,11.4 11.4,0 34.22,0"
        id="Shape" stroke="#000000" stroke-width="4"></path>
    </g>
    <g id="Group" transform="translate(1097.115112, 77.968994)" fill="#000000" fill-rule="nonzero"
      font-family="Helvetica" font-size="40" font-weight="normal">
      <text id="package">
        <tspan x="0" y="39">package</tspan>
      </text>
    </g>
    <g id="Group" transform="translate(1837.167725, 78.558975)" fill="#000000" fill-rule="nonzero"
      font-family="Helvetica" font-size="40" font-weight="normal">
      <text id="react-csr">
        <tspan x="0" y="39">react-csr</tspan>
      </text>
    </g>
    <g id="Group" transform="translate(502.534546, 224.802261)" fill="#CED4DA" fill-rule="nonzero">
      <polyline id="Path" points="0 0 702.14 0 702.14 749.58 0 749.58"></polyline>
    </g>
    <g id="Group" transform="translate(1232.251740, 224.952011)" fill="#CED4DA" fill-rule="nonzero">
      <polyline id="Path" points="0 0 1076.88 0 1076.88 749.64 0 749.64"></polyline>
    </g>
    <g id="Group" transform="translate(536.266968, 259.035278)" fill="#000000" fill-rule="nonzero"
      font-family="Helvetica" font-size="40" font-weight="normal">
      <text id="package">
        <tspan x="0" y="39">package</tspan>
      </text>
    </g>
    <g id="Group" transform="translate(535.933884, 365.658890)">
      <polyline id="Path" fill="#FAB005" fill-rule="nonzero"
        points="23.42 0 280.9 0 291.14 1.46 298.46 5.86 303.96 17.94 304.32 70.28 302.86 80.54 301.02 84.56 295.18 90.42 280.9 93.72 23.42 93.72 13.18 92.24 5.86 87.86 0.36 75.78 0.36 17.94 5.86 5.86 13.18 1.46 23.42 0">
      </polyline>
      <path
        d="M23.42,0 C118.64,0 213.86,0 280.9,0 M23.42,0 C94.58,0 165.74,0 280.9,0 M280.9,0 C296.52,0 304.32,7.8 304.32,23.42 M280.9,0 C296.52,0 304.32,7.8 304.32,23.42 M304.32,23.42 C304.32,40.34 304.32,57.24 304.32,70.28 M304.32,23.42 C304.32,35.68 304.32,47.94 304.32,70.28 M304.32,70.28 C304.32,85.9 296.52,93.72 280.9,93.72 M304.32,70.28 C304.32,85.9 296.52,93.72 280.9,93.72 M280.9,93.72 C186.88,93.72 92.86,93.72 23.42,93.72 M280.9,93.72 C185.94,93.72 90.98,93.72 23.42,93.72 M23.42,93.72 C7.8,93.72 0,85.9 0,70.28 M23.42,93.72 C7.8,93.72 0,85.9 0,70.28 M2.22044605e-16,70.28 C2.22044605e-16,58.64 2.22044605e-16,47 2.22044605e-16,23.42 M2.22044605e-16,70.28 C2.22044605e-16,57.36 2.22044605e-16,44.42 2.22044605e-16,23.42 M0,23.42 C0,7.8 7.8,0 23.42,0 M0,23.42 C0,7.8 7.8,0 23.42,0"
        id="Shape" stroke="#000000" stroke-width="4"></path>
    </g>
    <g id="Group" transform="translate(622.485138, 388.515411)" fill="#000000" fill-rule="nonzero"
      font-family="Helvetica" font-size="40" font-weight="normal">
      <text id="gulp-v4">
        <tspan x="0" y="39">gulp v4</tspan>
      </text>
    </g>
    <g id="Group" transform="translate(870.146606, 367.488953)" stroke="#000000" stroke-width="4">
      <path
        d="M23.42,5.55111512e-16 C101,5.55111512e-16 178.56,5.55111512e-16 280.9,5.55111512e-16 M23.42,5.55111512e-16 C112.14,5.55111512e-16 200.84,5.55111512e-16 280.9,5.55111512e-16 M280.9,0 C296.52,0 304.32,7.8 304.32,23.42 M280.9,0 C296.52,0 304.32,7.8 304.32,23.42 M304.32,23.42 C304.32,36.4 304.32,49.38 304.32,70.28 M304.32,23.42 C304.32,40.44 304.32,57.44 304.32,70.28 M304.32,70.28 C304.32,85.9 296.52,93.72 280.9,93.72 M304.32,70.28 C304.32,85.9 296.52,93.72 280.9,93.72 M280.9,93.72 C179.48,93.72 78.08,93.72 23.42,93.72 M280.9,93.72 C183.06,93.72 85.22,93.72 23.42,93.72 M23.42,93.72 C7.8,93.72 0,85.9 0,70.28 M23.42,93.72 C7.8,93.72 0,85.9 0,70.28 M4.4408921e-16,70.28 C4.4408921e-16,60.4 4.4408921e-16,50.52 4.4408921e-16,23.42 M4.4408921e-16,70.28 C4.4408921e-16,55.02 4.4408921e-16,39.74 4.4408921e-16,23.42 M0,23.42 C0,7.8 7.8,0 23.42,0 M0,23.42 C0,7.8 7.8,0 23.42,0"
        id="Shape"></path>
    </g>
    <g id="Group" transform="translate(928.308594, 390.345474)" fill="#000000" fill-rule="nonzero"
      font-family="Helvetica" font-size="40" font-weight="normal">
      <text id="gulp-babel">
        <tspan x="0" y="39">gulp-babel</tspan>
      </text>
    </g>
    <g id="Group" transform="translate(536.765640, 488.689056)" stroke="#000000" stroke-width="4">
      <path
        d="M23.12,5.68434189e-14 C229.32,5.68434189e-14 435.52,5.68434189e-14 612.84,5.68434189e-14 M23.12,5.68434189e-14 C228.68,5.68434189e-14 434.24,5.68434189e-14 612.84,5.68434189e-14 M612.84,5.68434189e-14 C628.26,5.68434189e-14 635.98,7.7 635.98,23.12 M612.84,5.68434189e-14 C628.26,5.68434189e-14 635.98,7.7 635.98,23.12 M635.98,23.12 C635.98,41.04 635.98,58.96 635.98,69.38 M635.98,23.12 C635.98,38.26 635.98,53.4 635.98,69.38 M635.98,69.38 C635.98,84.8 628.26,92.5 612.84,92.5 M635.98,69.38 C635.98,84.8 628.26,92.5 612.84,92.5 M612.84,92.5 C382.76,92.5 152.68,92.5 23.12,92.5 M612.84,92.5 C484.12,92.5 355.38,92.5 23.12,92.5 M23.12,92.5 C7.7,92.5 0,84.8 0,69.38 M23.12,92.5 C7.7,92.5 0,84.8 0,69.38 M0,69.38 C0,55.76 0,42.14 0,23.12 M0,69.38 C0,51.94 0,34.5 0,23.12 M0,23.12 C0,7.7 7.7,5.68434189e-14 23.12,5.68434189e-14 M0,23.12 C0,7.7 7.7,5.68434189e-14 23.12,5.68434189e-14"
        id="Shape"></path>
    </g>
    <g id="Group" transform="translate(724.515762, 512.195908)" fill="#000000" fill-rule="nonzero"
      font-family="Helvetica" font-size="40" font-weight="normal">
      <text id="gulp-typescript">
        <tspan x="0" y="39">gulp-typescript</tspan>
      </text>
    </g>
    <g id="Group" transform="translate(532.322433, 607.645355)" stroke="#000000" stroke-width="4">
      <path
        d="M23.12,0 C222.6,0 422.1,0 612.84,0 M23.12,0 C257.68,0 492.26,0 612.84,0 M612.84,0 C628.26,0 635.98,7.7 635.98,23.12 M612.84,0 C628.26,0 635.98,7.7 635.98,23.12 M635.98,23.12 C635.98,34.9 635.98,46.7 635.98,69.38 M635.98,23.12 C635.98,36.94 635.98,50.76 635.98,69.38 M635.98,69.38 C635.98,84.8 628.26,92.5 612.84,92.5 M635.98,69.38 C635.98,84.8 628.26,92.5 612.84,92.5 M612.84,92.5 C385.72,92.5 158.62,92.5 23.12,92.5 M612.84,92.5 C377.9,92.5 142.94,92.5 23.12,92.5 M23.12,92.5 C7.7,92.5 0,84.8 0,69.38 M23.12,92.5 C7.7,92.5 0,84.8 0,69.38 M0,69.38 C0,59.12 0,48.88 0,23.12 M0,69.38 C0,54.42 0,39.48 0,23.12 M0,23.12 C0,7.7 7.7,0 23.12,0 M0,23.12 C0,7.7 7.7,0 23.12,0"
        id="Shape"></path>
    </g>
    <g id="Group" transform="translate(767.892883, 629.303146)" fill="#000000" fill-rule="nonzero"
      font-family="Helvetica" font-size="40" font-weight="normal">
      <text id="gulp-filter">
        <tspan x="0" y="39">gulp-filter</tspan>
      </text>
    </g>
    <g id="Group" transform="translate(532.517899, 723.576599)" stroke="#000000" stroke-width="4">
      <path
        d="M23.12,0 C162.36,0 301.6,0 612.84,0 M23.12,0 C245.16,0 467.2,0 612.84,0 M612.84,0 C628.26,0 635.98,7.7 635.98,23.12 M612.84,0 C628.26,0 635.98,7.7 635.98,23.12 M635.98,23.12 C635.98,37.42 635.98,51.74 635.98,69.38 M635.98,23.12 C635.98,39.18 635.98,55.26 635.98,69.38 M635.98,69.38 C635.98,84.8 628.26,92.5 612.84,92.5 M635.98,69.38 C635.98,84.8 628.26,92.5 612.84,92.5 M612.84,92.5 C420.84,92.5 228.82,92.5 23.12,92.5 M612.84,92.5 C386.72,92.5 160.58,92.5 23.12,92.5 M23.12,92.5 C7.7,92.5 0,84.8 0,69.38 M23.12,92.5 C7.7,92.5 0,84.8 0,69.38 M0,69.38 C0,52.88 0,36.4 0,23.12 M0,69.38 C0,55.38 0,41.38 0,23.12 M0,23.12 C0,7.7 7.7,0 23.12,0 M0,23.12 C0,7.7 7.7,0 23.12,0"
        id="Shape"></path>
    </g>
    <g id="Group" transform="translate(758.503021, 745.036331)" fill="#000000" fill-rule="nonzero"
      font-family="Helvetica" font-size="40" font-weight="normal">
      <text id="gulp-uglify">
        <tspan x="0" y="39">gulp-uglify</tspan>
      </text>
    </g>
    <g id="Group" transform="translate(1300.336853, 258.978973)" fill="#000000" fill-rule="nonzero"
      font-family="Helvetica" font-size="40" font-weight="normal">
      <text id="application">
        <tspan x="0" y="39">application</tspan>
      </text>
    </g>
    <g id="Group" transform="translate(1263.140015, 362.441574)">
      <polyline id="Path" fill="#12B886" fill-rule="nonzero"
        points="23.36 0 345.12 0.36 353.88 3.28 357.18 5.84 361.56 13.14 363.02 23.36 362.64 75.54 357.18 87.58 349.88 91.96 339.66 93.42 17.88 93.06 9.12 90.14 3.28 84.3 1.46 80.28 0 70.08 0 23.36 1.46 13.14 5.84 5.84 13.14 1.46 23.36 0">
      </polyline>
      <path
        d="M23.36,0 C92.98,0 162.58,0 339.66,0 M23.36,0 C92.28,0 161.2,0 339.66,0 M339.66,0 C355.22,0 363.02,7.78 363.02,23.36 M339.66,0 C355.22,0 363.02,7.78 363.02,23.36 M363.02,23.36 C363.02,39.16 363.02,54.98 363.02,70.08 M363.02,23.36 C363.02,37.76 363.02,52.18 363.02,70.08 M363.02,70.08 C363.02,85.64 355.22,93.42 339.66,93.42 M363.02,70.08 C363.02,85.64 355.22,93.42 339.66,93.42 M339.66,93.42 C257.32,93.42 174.98,93.42 23.36,93.42 M339.66,93.42 C230.22,93.42 120.78,93.42 23.36,93.42 M23.36,93.42 C7.78,93.42 0,85.64 0,70.08 M23.36,93.42 C7.78,93.42 0,85.64 0,70.08 M0,70.08 C0,51.52 0,32.98 0,23.36 M0,70.08 C0,59.24 0,48.42 0,23.36 M0,23.36 C0,7.78 7.78,0 23.36,0 M0,23.36 C0,7.78 7.78,0 23.36,0"
        id="Shape" stroke="#000000" stroke-width="4"></path>
    </g>
    <g id="Group" transform="translate(1327.178055, 385.155426)" fill="#000000" fill-rule="nonzero"
      font-family="Helvetica" font-size="40" font-weight="normal">
      <text id="webpack-v5">
        <tspan x="0" y="39">webpack v5</tspan>
      </text>
    </g>
    <g id="Group" transform="translate(1655.062119, 359.803635)">
      <polyline id="Path" fill="#12B886" fill-rule="nonzero"
        points="23.36 0 266.04 0 276.26 1.46 280.28 3.28 286.12 9.12 289.04 17.88 289.4 70.08 287.94 80.28 286.12 84.3 280.28 90.14 266.04 93.42 23.36 93.42 13.14 91.96 9.12 90.14 3.28 84.3 0.36 75.54 0.36 17.88 3.28 9.12 9.12 3.28 23.36 0">
      </polyline>
      <path
        d="M23.36,0 C95.72,0 168.08,0 266.04,0 M23.36,0 C108.9,0 194.44,0 266.04,0 M266.04,0 C281.62,0 289.4,7.78 289.4,23.36 M266.04,0 C281.62,0 289.4,7.78 289.4,23.36 M289.4,23.36 C289.4,39.42 289.4,55.48 289.4,70.08 M289.4,23.36 C289.4,32.78 289.4,42.22 289.4,70.08 M289.4,70.08 C289.4,85.64 281.62,93.42 266.04,93.42 M289.4,70.08 C289.4,85.64 281.62,93.42 266.04,93.42 M266.04,93.42 C203.58,93.42 141.1,93.42 23.36,93.42 M266.04,93.42 C202.52,93.42 138.98,93.42 23.36,93.42 M23.36,93.42 C7.78,93.42 0,85.64 0,70.08 M23.36,93.42 C7.78,93.42 0,85.64 0,70.08 M0,70.08 C0,60.04 0,50.02 0,23.36 M0,70.08 C0,52.78 0,35.5 0,23.36 M0,23.36 C0,7.78 7.78,0 23.36,0 M0,23.36 C0,7.78 7.78,0 23.36,0"
        id="Shape" stroke="#000000" stroke-width="4"></path>
    </g>
    <g id="Group" transform="translate(1740.174866, 381.923996)" fill="#000000" fill-rule="nonzero"
      font-family="Helvetica" font-size="40" font-weight="normal">
      <text id="koa-v2">
        <tspan x="0" y="39">koa v2</tspan>
      </text>
    </g>
    <g id="Group" transform="translate(1264.125504, 485.691315)" stroke="#000000" stroke-width="4">
      <path
        d="M23.64,-5.68434189e-14 C384.86,-5.68434189e-14 746.08,-5.68434189e-14 988.02,-5.68434189e-14 M23.64,-5.68434189e-14 C216.98,-5.68434189e-14 410.34,-5.68434189e-14 988.02,-5.68434189e-14 M988.02,-5.68434189e-14 C1003.76,-5.68434189e-14 1011.64,7.88 1011.64,23.64 M988.02,-5.68434189e-14 C1003.76,-5.68434189e-14 1011.64,7.88 1011.64,23.64 M1011.64,23.64 C1011.64,33.44 1011.64,43.24 1011.64,70.9 M1011.64,23.64 C1011.64,37.86 1011.64,52.1 1011.64,70.9 M1011.64,70.9 C1011.64,86.66 1003.76,94.54 988.02,94.54 M1011.64,70.9 C1011.64,86.66 1003.76,94.54 988.02,94.54 M988.02,94.54 C641.82,94.54 295.64,94.54 23.64,94.54 M988.02,94.54 C697.22,94.54 406.42,94.54 23.64,94.54 M23.64,94.54 C7.88,94.54 0,86.66 0,70.9 M23.64,94.54 C7.88,94.54 0,86.66 0,70.9 M0,70.9 C0,59.1 0,47.28 0,23.64 M0,70.9 C0,60.04 0,49.18 0,23.64 M0,23.64 C0,7.88 7.88,-5.68434189e-14 23.64,-5.68434189e-14 M0,23.64 C0,7.88 7.88,-5.68434189e-14 23.64,-5.68434189e-14"
        id="Shape"></path>
    </g>
    <g id="Group" transform="translate(1515.297150, 510.543076)" fill="#000000" fill-rule="nonzero"
      font-family="Helvetica" font-size="40" font-weight="normal">
      <text id="webpack-hot-middleware">
        <tspan x="0" y="39">webpack-hot-middleware</tspan>
      </text>
    </g>
    <g id="Group" transform="translate(1264.552826, 607.693954)" stroke="#000000" stroke-width="4">
      <path
        d="M22.6,0 C303.98,0 585.36,0 986.86,0 M22.6,0 C304.16,0 585.72,0 986.86,0 M986.86,0 C1001.92,0 1009.46,7.54 1009.46,22.6 M986.86,0 C1001.92,0 1009.46,7.54 1009.46,22.6 M1009.46,22.6 C1009.46,39.78 1009.46,56.98 1009.46,67.82 M1009.46,22.6 C1009.46,39.46 1009.46,56.32 1009.46,67.82 M1009.46,67.82 C1009.46,82.9 1001.92,90.44 986.86,90.44 M1009.46,67.82 C1009.46,82.9 1001.92,90.44 986.86,90.44 M986.86,90.44 C655.92,90.44 324.98,90.44 22.6,90.44 M986.86,90.44 C749.78,90.44 512.68,90.44 22.6,90.44 M22.6,90.44 C7.54,90.44 0,82.9 0,67.82 M22.6,90.44 C7.54,90.44 0,82.9 0,67.82 M0,67.82 C0,55.94 0,44.04 0,22.6 M0,67.82 C0,51.7 0,35.58 0,22.6 M0,22.6 C0,7.54 7.54,0 22.6,0 M0,22.6 C0,7.54 7.54,0 22.6,0"
        id="Shape"></path>
    </g>
    <g id="Group" transform="translate(1512.194214, 627.303482)" fill="#000000" fill-rule="nonzero"
      font-family="Helvetica" font-size="40" font-weight="normal">
      <text id="webpack-dev-middleware">
        <tspan x="0" y="39">webpack-dev-middleware</tspan>
      </text>
    </g>
    <g id="Group" transform="translate(1263.300232, 729.338242)" stroke="#000000" stroke-width="4">
      <path
        d="M22.04,0 C189.42,0 356.8,0 454.96,0 M22.04,0 C175.36,0 328.68,0 454.96,0 M454.96,0 C469.64,0 476.98,7.34 476.98,22.04 M454.96,0 C469.64,0 476.98,7.34 476.98,22.04 M476.98,22.04 C476.98,36.36 476.98,50.68 476.98,66.1 M476.98,22.04 C476.98,31.86 476.98,41.68 476.98,66.1 M476.98,66.1 C476.98,80.78 469.64,88.12 454.96,88.12 M476.98,66.1 C476.98,80.78 469.64,88.12 454.96,88.12 M454.96,88.12 C366.86,88.12 278.76,88.12 22.04,88.12 M454.96,88.12 C331.88,88.12 208.8,88.12 22.04,88.12 M22.04,88.12 C7.34,88.12 0,80.78 0,66.1 M22.04,88.12 C7.34,88.12 0,80.78 0,66.1 M0,66.1 C0,54.46 0,42.82 0,22.04 M0,66.1 C0,54.28 0,42.48 0,22.04 M0,22.04 C0,7.34 7.34,0 22.04,0 M0,22.04 C0,7.34 7.34,0 22.04,0"
        id="Shape"></path>
    </g>
    <g id="Group" transform="translate(1409.791794, 749.399658)" fill="#000000" fill-rule="nonzero"
      font-family="Helvetica" font-size="40" font-weight="normal">
      <text id="koa-router">
        <tspan x="0" y="39">koa-router</tspan>
      </text>
    </g>
    <g id="Group" transform="translate(1773.193192, 725.723358)" stroke="#000000" stroke-width="4">
      <path
        d="M21.26,0 C188.78,0 356.3,0 483.94,0 M21.26,0 C117.7,0 214.12,0 483.94,0 M483.94,0 C498.12,0 505.2,7.08 505.2,21.26 M483.94,0 C498.12,0 505.2,7.08 505.2,21.26 M505.2,21.26 C505.2,34.7 505.2,48.12 505.2,63.78 M505.2,21.26 C505.2,31.1 505.2,40.94 505.2,63.78 M505.2,63.78 C505.2,77.96 498.12,85.04 483.94,85.04 M505.2,63.78 C505.2,77.96 498.12,85.04 483.94,85.04 M483.94,85.04 C351.72,85.04 219.5,85.04 21.26,85.04 M483.94,85.04 C336.32,85.04 188.68,85.04 21.26,85.04 M21.26,85.04 C7.08,85.04 0,77.96 0,63.78 M21.26,85.04 C7.08,85.04 0,77.96 0,63.78 M0,63.78 C0,52.26 0,40.72 0,21.26 M0,63.78 C0,52.82 0,41.86 0,21.26 M0,21.26 C0,7.08 7.08,0 21.26,0 M0,21.26 C0,7.08 7.08,0 21.26,0"
        id="Shape"></path>
    </g>
    <g id="Group" transform="translate(1956.581482, 744.773422)" fill="#000000" fill-rule="nonzero"
      font-family="Helvetica" font-size="40" font-weight="normal">
      <text id="koa-send">
        <tspan x="0" y="39">koa-send</tspan>
      </text>
    </g>
    <g id="Group" transform="translate(1264.609818, 852.277212)" stroke="#000000" stroke-width="4">
      <path
        d="M22.04,0 C164.3,0 306.56,0 454.96,0 M22.04,0 C150.7,0 279.36,0 454.96,0 M454.96,0 C469.64,0 476.98,7.34 476.98,22.04 M454.96,0 C469.64,0 476.98,7.34 476.98,22.04 M476.98,22.04 C476.98,37.38 476.98,52.72 476.98,66.1 M476.98,22.04 C476.98,35.88 476.98,49.72 476.98,66.1 M476.98,66.1 C476.98,80.78 469.64,88.12 454.96,88.12 M476.98,66.1 C476.98,80.78 469.64,88.12 454.96,88.12 M454.96,88.12 C290.16,88.12 125.36,88.12 22.04,88.12 M454.96,88.12 C290.36,88.12 125.76,88.12 22.04,88.12 M22.04,88.12 C7.34,88.12 0,80.78 0,66.1 M22.04,88.12 C7.34,88.12 0,80.78 0,66.1 M0,66.1 C0,52.06 0,38 0,22.04 M0,66.1 C0,48.74 0,31.36 0,22.04 M0,22.04 C0,7.34 7.34,0 22.04,0 M0,22.04 C0,7.34 7.34,0 22.04,0"
        id="Shape"></path>
    </g>
    <g id="Group" transform="translate(1417.101379, 872.162949)" fill="#000000" fill-rule="nonzero"
      font-family="Helvetica" font-size="40" font-weight="normal">
      <text id="koa-static">
        <tspan x="0" y="39">koa-static</tspan>
      </text>
    </g>
    <g id="Group" transform="translate(1778.507523, 845.546204)" stroke="#000000" stroke-width="4">
      <path
        d="M22.08,0 C119.62,0 217.16,0 476.22,0 M22.08,0 C161.34,0 300.6,0 476.22,0 M476.22,0 C490.94,0 498.3,7.36 498.3,22.08 M476.22,0 C490.94,0 498.3,7.36 498.3,22.08 M498.3,22.08 C498.3,31.1 498.3,40.12 498.3,66.26 M498.3,22.08 C498.3,37.96 498.3,53.86 498.3,66.26 M498.3,66.26 C498.3,80.98 490.94,88.36 476.22,88.36 M498.3,66.26 C498.3,80.98 490.94,88.36 476.22,88.36 M476.22,88.36 C320.72,88.36 165.22,88.36 22.08,88.36 M476.22,88.36 C326.62,88.36 177.02,88.36 22.08,88.36 M22.08,88.36 C7.36,88.36 0,80.98 0,66.26 M22.08,88.36 C7.36,88.36 0,80.98 0,66.26 M0,66.26 C0,49.58 0,32.9 0,22.08 M0,66.26 C0,53.94 0,41.6 0,22.08 M0,22.08 C0,7.36 7.36,0 22.08,0 M0,22.08 C0,7.36 7.36,0 22.08,0"
        id="Shape"></path>
    </g>
    <g id="Group" transform="translate(2023.094482, 861.672989)" fill="#000000" fill-rule="nonzero"
      font-family="Helvetica" font-size="40" font-weight="normal">
      <text id="...">
        <tspan x="0" y="39">...</tspan>
      </text>
    </g>
    <g id="Group" transform="translate(1973.791946, 356.235443)">
      <polyline id="Path" fill="#12B886" fill-rule="nonzero"
        points="23.36 0 277.4 0 287.6 1.46 291.62 3.28 297.46 9.12 300.38 17.88 300.74 70.08 299.28 80.28 297.46 84.3 291.62 90.14 277.4 93.42 23.36 93.42 13.14 91.96 9.12 90.14 3.28 84.3 0.36 75.54 0.36 17.88 3.28 9.12 9.12 3.28 23.36 0">
      </polyline>
      <path
        d="M23.36,0 C103.62,0 183.88,0 277.4,0 M23.36,0 C82.12,0 140.88,0 277.4,0 M277.4,0 C292.96,0 300.74,7.78 300.74,23.36 M277.4,0 C292.96,0 300.74,7.78 300.74,23.36 M300.74,23.36 C300.74,36.7 300.74,50.06 300.74,70.08 M300.74,23.36 C300.74,38.26 300.74,53.16 300.74,70.08 M300.74,70.08 C300.74,85.64 292.96,93.42 277.4,93.42 M300.74,70.08 C300.74,85.64 292.96,93.42 277.4,93.42 M277.4,93.42 C208.5,93.42 139.62,93.42 23.36,93.42 M277.4,93.42 C211.88,93.42 146.36,93.42 23.36,93.42 M23.36,93.42 C7.78,93.42 0,85.64 0,70.08 M23.36,93.42 C7.78,93.42 0,85.64 0,70.08 M0,70.08 C0,57.76 0,45.46 0,23.36 M0,70.08 C0,54.8 0,39.54 0,23.36 M0,23.36 C0,7.78 7.78,0 23.36,0 M0,23.36 C0,7.78 7.78,0 23.36,0"
        id="Shape" stroke="#000000" stroke-width="4"></path>
    </g>
    <g id="Group" transform="translate(2062.460815, 380.461441)" fill="#000000" fill-rule="nonzero"
      font-family="Helvetica" font-size="40" font-weight="normal">
      <text id="gulp-v4">
        <tspan x="0" y="39">gulp v4</tspan>
      </text>
    </g>
    <g id="Group" transform="translate(-0.951401, 1000.014750)" fill="#CED4DA" fill-rule="nonzero">
      <polyline id="Path" points="0 0 2310.84 0 2310.84 376.42 0 376.42"></polyline>
    </g>
    <g id="Group" transform="translate(35.101308, 1035.770897)" fill="#000000" fill-rule="nonzero"
      font-family="Helvetica" font-size="40" font-weight="normal">
      <text id="base-library">
        <tspan x="0" y="39">base library</tspan>
      </text>
    </g>
    <g id="Group" transform="translate(38.265244, 1119.142660)">
      <path
        d="M9.22,26.58 C16.24,18.52 23.24,10.46 28.92,3.94 M9.22,26.58 C14.04,21.04 18.86,15.5 28.92,3.94 M9.5,50.66 C19.74,38.88 29.98,27.1 50.18,3.86 M9.5,50.66 C20.92,37.52 32.34,24.38 50.18,3.86 M4.52,80.78 C20.4,62.5 36.28,44.22 71.44,3.8 M4.52,80.78 C19.94,63.04 35.34,45.3 71.44,3.8 M13.96,94.28 C42.12,61.9 70.28,29.5 92.7,3.72 M13.96,94.28 C38.96,65.54 63.94,36.8 92.7,3.72 M29.98,100.26 C50.12,77.1 70.26,53.92 113.96,3.66 M29.98,100.26 C48.3,79.16 66.64,58.08 113.96,3.66 M51.24,100.18 C74.26,73.7 97.28,47.22 135.22,3.58 M51.24,100.18 C83.18,63.46 115.1,26.72 135.22,3.58 M72.5,100.12 C105.74,61.86 139,23.62 156.48,3.52 M72.5,100.12 C101.08,67.24 129.66,34.36 156.48,3.52 M93.76,100.06 C115.78,74.72 137.8,49.38 176.42,4.96 M93.76,100.06 C113.9,76.86 134.06,53.68 176.42,4.96 M115.02,99.98 C136.02,75.82 157.02,51.66 197.68,4.88 M115.02,99.98 C145.02,65.46 175.04,30.92 197.68,4.88 M136.28,99.92 C154.1,79.4 171.94,58.88 218.94,4.82 M136.28,99.92 C154.18,79.32 172.1,58.72 218.94,4.82 M157.54,99.84 C180.52,73.4 203.5,46.96 240.2,4.76 M157.54,99.84 C181.3,72.5 205.06,45.18 240.2,4.76 M178.8,99.78 C197.44,78.32 216.1,56.86 264.08,1.66 M178.8,99.78 C207.96,66.22 237.12,32.68 264.08,1.66 M200.06,99.7 C218.9,78.04 237.72,56.38 276.16,12.16 M200.06,99.7 C226.6,69.18 253.14,38.64 276.16,12.16 M220,101.14 C245.44,71.88 270.88,42.62 285.62,25.68 M220,101.14 C246.08,71.16 272.14,41.18 285.62,25.68 M241.26,101.08 C252.76,87.86 264.24,74.64 285.88,49.76 M241.26,101.08 C250.94,89.96 260.6,78.84 285.88,49.76"
        id="Shape"></path>
      <path
        d="M23.82,0 C81.26,0 138.7,0 252.84,0 M23.82,0 C91.26,0 158.68,0 252.84,0 M252.84,0 C268.72,0 276.64,7.94 276.64,23.82 M252.84,0 C268.72,0 276.64,7.94 276.64,23.82 M276.64,23.82 C276.64,42.52 276.64,61.22 276.64,71.44 M276.64,23.82 C276.64,36.78 276.64,49.76 276.64,71.44 M276.64,71.44 C276.64,87.3 268.72,95.24 252.84,95.24 M276.64,71.44 C276.64,87.3 268.72,95.24 252.84,95.24 M252.84,95.24 C176.42,95.24 100,95.24 23.82,95.24 M252.84,95.24 C168.86,95.24 84.86,95.24 23.82,95.24 M23.82,95.24 C7.94,95.24 0,87.3 0,71.44 M23.82,95.24 C7.94,95.24 0,87.3 0,71.44 M0,71.44 C0,60.42 0,49.42 0,23.82 M0,71.44 C0,53.62 0,35.82 0,23.82 M0,23.82 C0,7.94 7.94,0 23.82,0 M0,23.82 C0,7.94 7.94,0 23.82,0"
        id="Shape" stroke="#000000" stroke-width="4"></path>
    </g>
    <g id="Group" transform="translate(136.845174, 1141.787999)" fill="#000000" fill-rule="nonzero"
      font-family="Helvetica" font-size="40" font-weight="normal">
      <text id="chalk">
        <tspan x="0" y="39">chalk</tspan>
      </text>
    </g>
    <g id="Group" transform="translate(342.636073, 1118.232727)" stroke="#000000" stroke-width="4">
      <path
        d="M23.82,0 C81.36,0 138.92,0 252.84,0 M23.82,0 C111.12,0 198.42,0 252.84,0 M252.84,0 C268.72,0 276.64,7.94 276.64,23.82 M252.84,0 C268.72,0 276.64,7.94 276.64,23.82 M276.64,23.82 C276.64,34.66 276.64,45.5 276.64,71.44 M276.64,23.82 C276.64,33.92 276.64,44.04 276.64,71.44 M276.64,71.44 C276.64,87.3 268.72,95.24 252.84,95.24 M276.64,71.44 C276.64,87.3 268.72,95.24 252.84,95.24 M252.84,95.24 C195.12,95.24 137.38,95.24 23.82,95.24 M252.84,95.24 C172.22,95.24 91.62,95.24 23.82,95.24 M23.82,95.24 C7.94,95.24 0,87.3 0,71.44 M23.82,95.24 C7.94,95.24 0,87.3 0,71.44 M0,71.44 C0,58.22 0,45.02 0,23.82 M0,71.44 C0,57.28 0,43.12 0,23.82 M0,23.82 C0,7.94 7.94,0 23.82,0 M0,23.82 C0,7.94 7.94,0 23.82,0"
        id="Shape"></path>
    </g>
    <g id="Group" transform="translate(406.960042, 1141.855647)" fill="#000000" fill-rule="nonzero"
      font-family="Helvetica" font-size="40" font-weight="normal">
      <text id="enquirer">
        <tspan x="0" y="39">enquirer</tspan>
      </text>
    </g>
    <g id="Group" transform="translate(651.483729, 1115.980123)" stroke="#000000" stroke-width="4">
      <path
        d="M23.82,0 C84.02,0 144.2,0 252.84,0 M23.82,0 C93.7,0 163.6,0 252.84,0 M252.84,0 C268.72,0 276.64,7.94 276.64,23.82 M252.84,0 C268.72,0 276.64,7.94 276.64,23.82 M276.64,23.82 C276.64,37.8 276.64,51.78 276.64,71.44 M276.64,23.82 C276.64,42.76 276.64,61.72 276.64,71.44 M276.64,71.44 C276.64,87.3 268.72,95.24 252.84,95.24 M276.64,71.44 C276.64,87.3 268.72,95.24 252.84,95.24 M252.84,95.24 C165.22,95.24 77.6,95.24 23.82,95.24 M252.84,95.24 C172.12,95.24 91.38,95.24 23.82,95.24 M23.82,95.24 C7.94,95.24 0,87.3 0,71.44 M23.82,95.24 C7.94,95.24 0,87.3 0,71.44 M0,71.44 C0,60.16 0,48.88 0,23.82 M0,71.44 C0,60.54 0,49.62 0,23.82 M0,23.82 C0,7.94 7.94,0 23.82,0 M0,23.82 C0,7.94 7.94,0 23.82,0"
        id="Shape"></path>
    </g>
    <g id="Group" transform="translate(760.807699, 1139.603043)" fill="#000000" fill-rule="nonzero"
      font-family="Helvetica" font-size="40" font-weight="normal">
      <text id="ora">
        <tspan x="0" y="39">ora</tspan>
      </text>
    </g>
    <g id="Group" transform="translate(953.849147, 1114.278259)" stroke="#000000" stroke-width="4">
      <path
        d="M24.5,0 C98.92,0 173.34,0 390.04,0 M24.5,0 C123.78,0 223.06,0 390.04,0 M390.04,0 C406.36,0 414.54,8.16 414.54,24.5 M390.04,0 C406.36,0 414.54,8.16 414.54,24.5 M414.54,24.5 C414.54,36.18 414.54,47.86 414.54,73.48 M414.54,24.5 C414.54,43.02 414.54,61.56 414.54,73.48 M414.54,73.48 C414.54,89.8 406.36,97.96 390.04,97.96 M414.54,73.48 C414.54,89.8 406.36,97.96 390.04,97.96 M390.04,97.96 C303.4,97.96 216.76,97.96 24.5,97.96 M390.04,97.96 C258.12,97.96 126.2,97.96 24.5,97.96 M24.5,97.96 C8.16,97.96 1.13686838e-13,89.8 1.13686838e-13,73.48 M24.5,97.96 C8.16,97.96 1.13686838e-13,89.8 1.13686838e-13,73.48 M1.13686838e-13,73.48 C1.13686838e-13,55.12 1.13686838e-13,36.78 1.13686838e-13,24.5 M1.13686838e-13,73.48 C1.13686838e-13,59.86 1.13686838e-13,46.26 1.13686838e-13,24.5 M1.13686838e-13,24.5 C1.13686838e-13,8.16 8.16,0 24.5,0 M1.13686838e-13,24.5 C1.13686838e-13,8.16 8.16,0 24.5,0"
        id="Shape"></path>
    </g>
    <g id="Group" transform="translate(1046.702779, 1141.000544)" fill="#000000" fill-rule="nonzero"
      font-family="Helvetica" font-size="40" font-weight="normal">
      <text id="react-refresh">
        <tspan x="0" y="39">react-refresh</tspan>
      </text>
    </g>
    <g id="Group" transform="translate(1394.932622, 1114.063924)" stroke="#000000" stroke-width="4">
      <path
        d="M24.22,0 C76.98,0 129.74,0 191.32,0 M24.22,0 C85.22,0 146.24,0 191.32,0 M191.32,0 C207.48,0 215.54,8.08 215.54,24.22 M191.32,0 C207.48,0 215.54,8.08 215.54,24.22 M215.54,24.22 C215.54,37.48 215.54,50.76 215.54,72.66 M215.54,24.22 C215.54,40.58 215.54,56.94 215.54,72.66 M215.54,72.66 C215.54,88.8 207.48,96.88 191.32,96.88 M215.54,72.66 C215.54,88.8 207.48,96.88 191.32,96.88 M191.32,96.88 C137.62,96.88 83.92,96.88 24.22,96.88 M191.32,96.88 C156.76,96.88 122.2,96.88 24.22,96.88 M24.22,96.88 C8.08,96.88 0,88.8 0,72.66 M24.22,96.88 C8.08,96.88 0,88.8 0,72.66 M0,72.66 C0,59.72 0,46.8 0,24.22 M0,72.66 C0,54.9 0,37.12 0,24.22 M0,24.22 C0,8.08 8.08,0 24.22,0 M0,24.22 C0,8.08 8.08,0 24.22,0"
        id="Shape"></path>
    </g>
    <g id="Group" transform="translate(1462.724996, 1138.261083)" fill="#000000" fill-rule="nonzero"
      font-family="Helvetica" font-size="40" font-weight="normal">
      <text id="sass">
        <tspan x="0" y="39">sass</tspan>
      </text>
    </g>
    <g id="Group" transform="translate(1638.617009, 1113.199056)" stroke="#000000" stroke-width="4">
      <path
        d="M24.64,0 C114.16,0 203.68,0 256.68,0 M24.64,0 C109.06,0 193.48,0 256.68,0 M256.68,0 C273.1,0 281.32,8.22 281.32,24.64 M256.68,0 C273.1,0 281.32,8.22 281.32,24.64 M281.32,24.64 C281.32,41.68 281.32,58.7 281.32,73.94 M281.32,24.64 C281.32,43.78 281.32,62.92 281.32,73.94 M281.32,73.94 C281.32,90.38 273.1,98.58 256.68,98.58 M281.32,73.94 C281.32,90.38 273.1,98.58 256.68,98.58 M256.68,98.58 C169.1,98.58 81.52,98.58 24.64,98.58 M256.68,98.58 C197.76,98.58 138.84,98.58 24.64,98.58 M24.64,98.58 C8.22,98.58 0,90.38 0,73.94 M24.64,98.58 C8.22,98.58 0,90.38 0,73.94 M0,73.94 C0,58.58 0,43.22 0,24.64 M0,73.94 C0,59 0,44.04 0,24.64 M0,24.64 C0,8.22 8.22,0 24.64,0 M0,24.64 C0,8.22 8.22,0 24.64,0"
        id="Shape"></path>
    </g>
    <g id="Group" transform="translate(1704.276998, 1138.493729)" fill="#000000" fill-rule="nonzero"
      font-family="Helvetica" font-size="40" font-weight="normal">
      <text id="post-css">
        <tspan x="0" y="39">post-css</tspan>
      </text>
    </g>
    <g id="Group" transform="translate(530.601568, 852.842407)" stroke="#000000" stroke-width="4">
      <path
        d="M23.12,0 C214.88,0 406.64,0 612.84,0 M23.12,0 C154.58,0 286.02,0 612.84,0 M612.84,0 C628.26,0 635.98,7.7 635.98,23.12 M612.84,0 C628.26,0 635.98,7.7 635.98,23.12 M635.98,23.12 C635.98,39.98 635.98,56.84 635.98,69.38 M635.98,23.12 C635.98,33.22 635.98,43.32 635.98,69.38 M635.98,69.38 C635.98,84.8 628.26,92.5 612.84,92.5 M635.98,69.38 C635.98,84.8 628.26,92.5 612.84,92.5 M612.84,92.5 C406.16,92.5 199.46,92.5 23.12,92.5 M612.84,92.5 C397.74,92.5 182.64,92.5 23.12,92.5 M23.12,92.5 C7.7,92.5 -1.13686838e-13,84.8 -1.13686838e-13,69.38 M23.12,92.5 C7.7,92.5 -1.13686838e-13,84.8 -1.13686838e-13,69.38 M-1.13686838e-13,69.38 C-1.13686838e-13,56.76 -1.13686838e-13,44.14 -1.13686838e-13,23.12 M-1.13686838e-13,69.38 C-1.13686838e-13,56.32 -1.13686838e-13,43.28 -1.13686838e-13,23.12 M-1.13686838e-13,23.12 C-1.13686838e-13,7.7 7.7,0 23.12,0 M-1.13686838e-13,23.12 C-1.13686838e-13,7.7 7.7,0 23.12,0"
        id="Shape"></path>
    </g>
    <g id="Group" transform="translate(831.586690, 875.094376)" fill="#000000" fill-rule="nonzero"
      font-family="Helvetica" font-size="40" font-weight="normal">
      <text id="...">
        <tspan x="0" y="39">...</tspan>
      </text>
    </g>
    <g id="Group" transform="translate(36.771510, 1245.512187)">
      <polyline id="Path" fill="#7950F2" fill-rule="nonzero"
        points="24.98 0 608.22 0.4 617.6 3.52 621.1 6.24 625.8 14.06 627.36 24.98 626.96 80.8 625.8 85.88 621.1 93.68 613.3 98.36 602.38 99.92 19.12 99.54 9.76 96.42 6.24 93.68 1.56 85.88 0 74.94 0 24.98 1.56 14.06 6.24 6.24 14.06 1.56 24.98 0">
      </polyline>
      <path
        d="M24.98,0 C203.72,0 382.46,0 602.38,0 M24.98,0 C151,0 277.02,0 602.38,0 M602.38,0 C619.02,0 627.36,8.32 627.36,24.98 M602.38,0 C619.02,0 627.36,8.32 627.36,24.98 M627.36,24.98 C627.36,35.4 627.36,45.82 627.36,74.94 M627.36,24.98 C627.36,44.94 627.36,64.9 627.36,74.94 M627.36,74.94 C627.36,91.6 619.02,99.92 602.38,99.92 M627.36,74.94 C627.36,91.6 619.02,99.92 602.38,99.92 M602.38,99.92 C434.54,99.92 266.72,99.92 24.98,99.92 M602.38,99.92 C470.54,99.92 338.7,99.92 24.98,99.92 M24.98,99.92 C8.32,99.92 0,91.6 0,74.94 M24.98,99.92 C8.32,99.92 0,91.6 0,74.94 M0,74.94 C0,56.62 0,38.3 0,24.98 M0,74.94 C0,64 0,53.06 0,24.98 M0,24.98 C0,8.32 8.32,0 24.98,0 M0,24.98 C0,8.32 8.32,0 24.98,0"
        id="Shape" stroke="#000000" stroke-width="4"></path>
    </g>
    <g id="Group" transform="translate(150.447805, 1271.473872)" fill="#000000" fill-rule="nonzero"
      font-family="Helvetica" font-size="40" font-weight="normal">
      <text id="@elastic/elasticsearch">
        <tspan x="0" y="39">@elastic/elasticsearch</tspan>
      </text>
    </g>
    <g id="Group" transform="translate(690.287999, 1248.248901)" stroke="#000000" stroke-width="4">
      <path
        d="M24.3,0 C90.84,0 157.38,0 297.48,0 M24.3,0 C98.14,0 172,0 297.48,0 M297.48,0 C313.68,0 321.78,8.1 321.78,24.3 M297.48,0 C313.68,0 321.78,8.1 321.78,24.3 M321.78,24.3 C321.78,42.72 321.78,61.14 321.78,72.88 M321.78,24.3 C321.78,34.8 321.78,45.32 321.78,72.88 M321.78,72.88 C321.78,89.08 313.68,97.18 297.48,97.18 M321.78,72.88 C321.78,89.08 313.68,97.18 297.48,97.18 M297.48,97.18 C240.42,97.18 183.36,97.18 24.3,97.18 M297.48,97.18 C198.44,97.18 99.42,97.18 24.3,97.18 M24.3,97.18 C8.1,97.18 0,89.08 0,72.88 M24.3,97.18 C8.1,97.18 0,89.08 0,72.88 M0,72.88 C0,60.46 0,48.02 0,24.3 M0,72.88 C0,55.18 0,37.5 0,24.3 M0,24.3 C0,8.1 8.1,0 24.3,0 M0,24.3 C0,8.1 8.1,0 24.3,0"
        id="Shape"></path>
    </g>
    <g id="Group" transform="translate(778.497294, 1273.273697)" fill="#000000" fill-rule="nonzero"
      font-family="Helvetica" font-size="40" font-weight="normal">
      <text id="fs-extra">
        <tspan x="0" y="39">fs-extra</tspan>
      </text>
    </g>
    <g id="Group" transform="translate(1036.814794, 1243.579407)" stroke="#000000" stroke-width="4">
      <path
        d="M25.14,0 C202.48,0 379.84,0 478.1,0 M25.14,0 C120.4,0 215.66,0 478.1,0 M478.1,0 C494.86,0 503.24,8.38 503.24,25.14 M478.1,0 C494.86,0 503.24,8.38 503.24,25.14 M503.24,25.14 C503.24,42.76 503.24,60.4 503.24,75.42 M503.24,25.14 C503.24,37.74 503.24,50.32 503.24,75.42 M503.24,75.42 C503.24,92.18 494.86,100.56 478.1,100.56 M503.24,75.42 C503.24,92.18 494.86,100.56 478.1,100.56 M478.1,100.56 C342.28,100.56 206.46,100.56 25.14,100.56 M478.1,100.56 C319.88,100.56 161.64,100.56 25.14,100.56 M25.14,100.56 C8.38,100.56 0,92.18 0,75.42 M25.14,100.56 C8.38,100.56 0,92.18 0,75.42 M0,75.42 C0,56.9 0,38.38 0,25.14 M0,75.42 C0,59.86 0,44.32 0,25.14 M0,25.14 C0,8.38 8.38,0 25.14,0 M0,25.14 C0,8.38 8.38,0 25.14,0"
        id="Shape"></path>
    </g>
    <g id="Group" transform="translate(1160.438171, 1269.855626)" fill="#000000" fill-rule="nonzero"
      font-family="Helvetica" font-size="40" font-weight="normal">
      <text id="update-notifier">
        <tspan x="0" y="39">update-notifier</tspan>
      </text>
    </g>
    <g id="Group" transform="translate(1564.900528, 1244.711711)" stroke="#000000" stroke-width="4">
      <path
        d="M23.82,0 C78.26,0 132.72,0 218.84,0 M23.82,0 C91.88,0 159.92,0 218.84,0 M218.84,0 C234.72,0 242.66,7.94 242.66,23.82 M218.84,0 C234.72,0 242.66,7.94 242.66,23.82 M242.66,23.82 C242.66,33.92 242.66,44.02 242.66,71.46 M242.66,23.82 C242.66,37.06 242.66,50.28 242.66,71.46 M242.66,71.46 C242.66,87.34 234.72,95.28 218.84,95.28 M242.66,71.46 C242.66,87.34 234.72,95.28 218.84,95.28 M218.84,95.28 C156,95.28 93.14,95.28 23.82,95.28 M218.84,95.28 C151.98,95.28 85.14,95.28 23.82,95.28 M23.82,95.28 C7.94,95.28 0,87.34 0,71.46 M23.82,95.28 C7.94,95.28 0,87.34 0,71.46 M0,71.46 C0,53.38 0,35.32 0,23.82 M0,71.46 C0,55.18 0,38.88 0,23.82 M0,23.82 C0,7.94 7.94,0 23.82,0 M0,23.82 C0,7.94 7.94,0 23.82,0"
        id="Shape"></path>
    </g>
    <g id="Group" transform="translate(1669.232971, 1268.355993)" fill="#000000" fill-rule="nonzero"
      font-family="Helvetica" font-size="40" font-weight="normal">
      <text id="...">
        <tspan x="0" y="39">...</tspan>
      </text>
    </g>
    <g id="Group" transform="translate(1952.728541, 1110.320943)">
      <polyline id="Path" fill="#7950F2" fill-rule="nonzero"
        points="24.84 0 301 0 311.88 1.56 316.14 3.5 322.34 9.7 325.46 19.02 325.84 74.52 324.3 85.38 322.34 89.66 316.14 95.86 301 99.36 24.84 99.36 13.98 97.8 9.7 95.86 3.5 89.66 0.38 80.34 0.38 19.02 3.5 9.7 9.7 3.5 24.84 0">
      </polyline>
      <path
        d="M24.84,0 C100.68,0 176.5,0 301,0 M24.84,0 C110.24,0 195.66,0 301,0 M301,0 C317.56,0 325.84,8.28 325.84,24.84 M301,0 C317.56,0 325.84,8.28 325.84,24.84 M325.84,24.84 C325.84,36.68 325.84,48.54 325.84,74.52 M325.84,24.84 C325.84,35.2 325.84,45.56 325.84,74.52 M325.84,74.52 C325.84,91.08 317.56,99.36 301,99.36 M325.84,74.52 C325.84,91.08 317.56,99.36 301,99.36 M301,99.36 C231.32,99.36 161.66,99.36 24.84,99.36 M301,99.36 C229.08,99.36 157.16,99.36 24.84,99.36 M24.84,99.36 C8.28,99.36 0,91.08 0,74.52 M24.84,99.36 C8.28,99.36 0,91.08 0,74.52 M0,74.52 C0,62.12 0,49.7 0,24.84 M0,74.52 C0,63.6 0,52.66 0,24.84 M0,24.84 C0,8.28 8.28,0 24.84,0 M0,24.84 C0,8.28 8.28,0 24.84,0"
        id="Shape" stroke="#000000" stroke-width="4"></path>
    </g>
    <g id="Group" transform="translate(2009.649882, 1136.001053)" fill="#000000" fill-rule="nonzero"
      font-family="Helvetica" font-size="40" font-weight="normal">
      <text id="commander">
        <tspan x="0" y="39">commander</tspan>
      </text>
    </g>
  </g>
</svg>